<?xml version="1.0" encoding="UTF-8" standalone="no"?>
<!DOCTYPE svg PUBLIC "-//W3C//DTD SVG 1.1//EN" "http://www.w3.org/Graphics/SVG/1.1/DTD/svg11.dtd">
<svg width="100%" height="100%" viewBox="0 0 215 200" version="1.1" xmlns="http://www.w3.org/2000/svg" xmlns:xlink="http://www.w3.org/1999/xlink" xml:space="preserve" xmlns:serif="http://www.serif.com/" style="fill-rule:evenodd;clip-rule:evenodd;stroke-linejoin:round;stroke-miterlimit:2;">
    <g id="g1911" transform="matrix(2.20098,0,0,2.20098,-127.274,-110.864)">
        <g id="path16" transform="matrix(1,0,0,1,-0.263711,-0.256992)">
            <path d="M150.202,81.374C150.202,82.009 150.203,82.513 150.294,83.027C150.203,83.964 149.994,85.115 149.782,86.295C149.48,87.383 149.049,88.42 148.536,89.418C148.112,90.143 147.606,90.864 147.092,91.439C146.276,92.315 145.422,93.128 144.454,93.853C143.608,94.579 142.649,95.221 141.712,95.795C140.714,96.46 139.528,97.035 138.379,97.488C137.502,97.911 136.572,98.274 135.544,98.485C134.395,98.848 133.149,99.056 131.909,99.207C131.032,99.298 130.158,99.36 129.311,99.299C129.009,99.299 128.86,99.143 128.799,98.932C128.799,98.69 128.792,98.571 128.944,98.42C129.155,98.117 129.37,97.848 129.521,97.606L134.298,91.898L116.674,93.341C115.283,93.493 113.918,93.499 112.527,93.197C111.378,93.046 110.296,92.766 109.207,92.252C107.968,91.678 106.517,90.957 105.126,90.231L99.706,104.797C98.044,105.251 96.291,105.74 94.628,106.254C94.991,106.103 93.183,106.77 91.308,107.435C89.343,108.161 88.015,108.729 86.715,109.364C84.175,110.604 81.72,112 79.301,113.603C78.092,114.389 76.764,115.325 75.403,116.293C74.587,116.928 73.716,117.655 72.779,118.471L70.076,121.069C68.715,122.369 67.416,123.906 66.388,125.479C66.902,125.63 67.427,125.787 67.911,125.938C68.062,125.998 68.272,126.087 68.514,126.148C69.724,126.511 70.598,126.725 71.414,127.027C71.989,127.239 72.559,127.445 73.133,127.657C74.464,128.262 75.765,128.745 77.004,129.35C77.488,129.561 78,129.782 78.514,130.085C78.725,130.206 79.037,130.353 79.248,130.504C79.248,130.595 79.301,130.588 79.301,130.649C79.301,130.649 79.393,130.716 79.393,130.806C79.453,130.867 79.458,130.951 79.458,130.951C79.458,131.162 79.304,131.323 79.183,131.384C78.306,131.595 77.369,131.743 76.493,131.804C75.102,132.045 73.803,132.315 72.503,132.617C71.173,132.889 69.872,133.349 68.632,133.772C67.786,133.984 66.815,134.336 65.968,134.638C65.152,134.94 64.371,135.214 63.646,135.425C63.434,135.516 63.278,135.576 63.278,135.727C63.278,135.878 63.428,135.937 63.488,135.937C63.549,135.937 63.554,135.937 63.554,135.937L83.028,137.328C83.239,137.328 83.446,137.394 83.658,137.394C84.02,137.394 84.384,137.328 84.747,137.328C85.986,137.177 87.162,136.88 88.25,136.397C89.702,135.731 90.946,134.862 92.095,133.864C93.123,132.836 94.052,131.798 94.838,130.649C95.564,129.56 96.081,128.381 96.505,127.171C96.958,126.083 97.233,124.847 97.384,123.668C97.535,122.73 97.594,121.735 97.594,120.768C102.431,120.344 107.155,119.766 111.871,119.101C119.006,117.861 126.04,115.417 132.631,111.91C134.445,110.973 136.271,110.038 138.024,109.01C139.173,108.375 140.472,107.559 141.712,106.621C142.8,105.745 143.819,104.892 144.756,104.076C145.784,103.138 146.781,102.053 147.748,100.874C149.472,98.788 150.715,96.308 151.501,93.617C151.804,92.408 152.011,91.164 152.223,89.864C152.223,89.41 152.315,88.987 152.315,88.473C152.315,87.898 152.231,87.236 152.17,86.662C151.959,85.483 151.649,84.391 151.226,83.303C150.923,82.668 150.565,82.009 150.202,81.374ZM78.028,118.13C79.389,118.13 80.508,119.285 80.508,120.676C80.508,122.097 79.389,123.221 78.028,123.221C76.667,123.221 75.548,122.097 75.548,120.676C75.548,119.285 76.667,118.13 78.028,118.13Z" style="fill:rgb(37,59,110);fill-rule:nonzero;"/>
        </g>
        <path id="path20" d="M131.95,128.279C124.663,132.573 116.621,135.415 108.185,136.654L102.32,137.138L96.333,137.501L90.014,137.44C91.677,136.412 93.189,135.203 94.519,133.812L95.819,132.3C96.908,130.91 97.785,129.458 98.359,127.856C98.631,126.828 98.873,125.891 99.085,124.893L99.448,122.565L105.736,121.9L110.665,121.265L113.99,120.751C115.895,120.388 117.77,119.874 119.674,119.3L125.751,117.123L130.468,115.006L135.275,112.618L139.78,110.139L143.318,107.75L147.823,103.548L151.179,98.952L150.967,100.705C150.09,106.359 147.974,111.801 144.86,116.669C142.743,120.025 140.052,122.837 136.938,125.014L135.275,126.193L131.95,128.279Z" style="fill:rgb(37,59,110);fill-rule:nonzero;"/>
        <path id="path22" d="M143.801,73.253C142.41,72.255 140.959,71.378 139.357,70.653L113.295,59.829L112.872,59.617C112.781,59.617 112.72,59.556 112.63,59.556C112.569,59.556 112.418,59.617 112.358,59.708C112.206,59.829 112.206,59.98 112.206,60.131C112.206,60.282 112.206,60.433 112.358,60.494L119.614,69.927L121.216,72.104C121.579,72.829 121.73,73.555 121.791,74.281L121.791,74.492C121.791,75.157 121.64,75.883 121.428,76.548L120.642,78.211L119.916,79.3C121.488,78.997 122.94,78.725 124.482,78.483C126.447,78.12 128.533,77.848 130.71,77.758C132.524,77.697 134.217,77.637 135.94,77.637C137.241,77.697 138.692,77.758 140.143,77.909C141.111,78.06 141.957,78.211 142.834,78.423C143.499,78.634 144.164,78.997 144.739,79.36C145.676,80.025 146.402,80.902 146.825,81.9C147.188,82.716 147.43,83.653 147.49,84.53C147.792,83.714 147.913,82.928 147.913,82.051L147.913,81.688C147.853,80.6 147.702,79.572 147.43,78.483C146.976,77.334 146.402,76.246 145.736,75.309C145.162,74.583 144.527,73.918 143.862,73.343C143.862,73.253 143.801,73.253 143.801,73.253Z" style="fill:rgb(37,59,110);fill-rule:nonzero;"/>
        <path id="path24" d="M124.693,134.508C126.054,133.933 127.354,133.298 128.594,132.573C128.745,132.633 128.956,132.633 129.107,132.633C129.984,132.633 130.861,132.573 131.708,132.421C134.247,132.21 136.787,131.847 139.266,131.393C136.575,133.207 134.036,135.173 131.708,137.289C129.682,139.012 127.868,140.917 126.054,142.761C125.54,142.761 125.117,142.61 124.754,142.489C123.151,141.764 121.7,140.978 120.249,140.101C118.858,139.315 117.649,138.378 116.621,137.289C117.407,136.987 118.223,136.715 119.009,136.473C120.974,135.989 122.849,135.324 124.693,134.508Z" style="fill:rgb(37,59,110);fill-rule:nonzero;"/>
    </g>
</svg>
